<svg width="430" height="430" viewBox="0 0 430 430" fill="none" xmlns="http://www.w3.org/2000/svg">
<path d="M150.8 131.3L256.3 237.4C267.7 248.9 286.3 248.9 297.8 237.4L403.5 131.4" stroke="#121331" stroke-width="12" stroke-miterlimit="14.8" stroke-linecap="round" stroke-linejoin="round"/>
<path d="M150.8 131.3V298.6H403.5V131.4L150.8 131.3Z" stroke="#121331" stroke-width="12" stroke-miterlimit="14.8" stroke-linecap="round" stroke-linejoin="round"/>
<path d="M150.8 282L217.5 224.2C222.2 220.1 227.4 216.6 232.8 213.7M321.5 213.6C327.1 216.6 332.3 220.2 337.2 224.4L403.5 281.3" stroke="#121331" stroke-width="12" stroke-miterlimit="14.8" stroke-linecap="round" stroke-linejoin="round"/>
<path d="M107.4 131.4C86.1996 131.4 45.6996 131.4 26.5996 131.4M107.4 173.2C86.1996 173.2 45.6996 173.2 26.5996 173.2M107.6 214.4C86.3996 214.4 45.8996 214.4 26.7996 214.4M107.6 256.2C86.3996 256.2 45.8996 256.2 26.7996 256.2M107.4 297.4C86.1996 297.4 45.6996 297.4 26.5996 297.4" stroke="#121331" stroke-width="12" stroke-miterlimit="14.8" stroke-linecap="round" stroke-linejoin="round"/>
</svg>
